<svg width="503" height="465" viewBox="0 0 503 465" fill="none" xmlns="http://www.w3.org/2000/svg">
<path d="M251.933 4.33334C251.4 13.5333 250.067 54.8667 249 96.3333C247.8 137.8 246.333 175.533 245.667 180.2C242.6 201.267 227.8 218.2 207 224.333C199.267 226.6 187.8 227.133 101.667 229.667C48.4667 231.133 3.26668 232.6 1.00001 232.733C-1.13332 232.867 35.4 234.067 82.3333 235.533C203.133 239 203.267 239 214.067 244.067C230.867 251.8 242.6 267 245.533 284.333C246.2 288.333 247.8 327.933 249 372.333C252.2 490.467 252.6 491.667 255.4 392.333C258.467 286.733 258.733 281.8 264.2 270.333C269.4 259.133 279.133 249.4 290.333 244.067C301.133 239.133 304.867 238.867 423 235.4C469.533 234.067 505.267 232.867 502.333 232.733C499.4 232.467 455.267 231.133 404.333 229.667C353.4 228.2 309 226.6 305.667 226.2C290.733 224.2 276.867 215.533 268.333 202.733C258.867 188.467 259.133 190.6 255.8 83.9333C253.4 7.00002 252.733 -8.99999 251.933 4.33334Z" fill="black"/>
</svg>
